<mxfile host="app.diagrams.net" modified="2023-07-11T09:12:29.000Z" agent="Mozilla/5.0 (X11; Ubuntu; Linux x86_64; rv:109.0) Gecko/20100101 Firefox/115.0" etag="h3wjs8i2kUitF10fFwL7" version="21.6.1" type="device">
  <diagram name="Page-1" id="iG6R2qa9bfH2ZhD9IwoT">
    <mxGraphModel dx="1035" dy="568" grid="1" gridSize="10" guides="1" tooltips="1" connect="1" arrows="1" fold="1" page="1" pageScale="1" pageWidth="850" pageHeight="1100" math="0" shadow="0">
      <root>
        <mxCell id="0" />
        <mxCell id="1" parent="0" />
        <mxCell id="bw8M7RW2mz0McZh7SWPE-13" value="" style="edgeStyle=orthogonalEdgeStyle;rounded=0;orthogonalLoop=1;jettySize=auto;html=1;" parent="1" source="bw8M7RW2mz0McZh7SWPE-1" target="bw8M7RW2mz0McZh7SWPE-2" edge="1">
          <mxGeometry relative="1" as="geometry" />
        </mxCell>
        <mxCell id="bw8M7RW2mz0McZh7SWPE-1" value="Abbey Trapdoor Entrance" style="rounded=0;whiteSpace=wrap;html=1;" parent="1" vertex="1">
          <mxGeometry x="365" y="190" width="120" height="60" as="geometry" />
        </mxCell>
        <mxCell id="bw8M7RW2mz0McZh7SWPE-12" value="" style="edgeStyle=orthogonalEdgeStyle;rounded=0;orthogonalLoop=1;jettySize=auto;html=1;shape=link;" parent="1" source="bw8M7RW2mz0McZh7SWPE-2" target="bw8M7RW2mz0McZh7SWPE-5" edge="1">
          <mxGeometry relative="1" as="geometry" />
        </mxCell>
        <mxCell id="bw8M7RW2mz0McZh7SWPE-14" value="" style="edgeStyle=orthogonalEdgeStyle;rounded=0;orthogonalLoop=1;jettySize=auto;html=1;shape=link;" parent="1" source="bw8M7RW2mz0McZh7SWPE-2" target="bw8M7RW2mz0McZh7SWPE-4" edge="1">
          <mxGeometry relative="1" as="geometry" />
        </mxCell>
        <mxCell id="bw8M7RW2mz0McZh7SWPE-15" value="" style="edgeStyle=orthogonalEdgeStyle;rounded=0;orthogonalLoop=1;jettySize=auto;html=1;shape=link;" parent="1" source="bw8M7RW2mz0McZh7SWPE-2" target="bw8M7RW2mz0McZh7SWPE-3" edge="1">
          <mxGeometry relative="1" as="geometry" />
        </mxCell>
        <mxCell id="bw8M7RW2mz0McZh7SWPE-2" value="&lt;div&gt;Cellar. Puzzle/Riddle on wall.&lt;/div&gt;&lt;div&gt;Ref: Matthew 16:18&lt;br&gt;&lt;/div&gt;" style="rounded=0;whiteSpace=wrap;html=1;" parent="1" vertex="1">
          <mxGeometry x="365" y="280" width="120" height="60" as="geometry" />
        </mxCell>
        <mxCell id="bw8M7RW2mz0McZh7SWPE-43" value="" style="edgeStyle=orthogonalEdgeStyle;shape=link;rounded=0;orthogonalLoop=1;jettySize=auto;html=1;" parent="1" source="bw8M7RW2mz0McZh7SWPE-3" target="bw8M7RW2mz0McZh7SWPE-27" edge="1">
          <mxGeometry relative="1" as="geometry" />
        </mxCell>
        <mxCell id="bw8M7RW2mz0McZh7SWPE-3" value="Archives&lt;br&gt;Alternate exit." style="rounded=0;whiteSpace=wrap;html=1;" parent="1" vertex="1">
          <mxGeometry x="220" y="280" width="120" height="60" as="geometry" />
        </mxCell>
        <mxCell id="bw8M7RW2mz0McZh7SWPE-17" value="" style="edgeStyle=orthogonalEdgeStyle;shape=link;rounded=0;orthogonalLoop=1;jettySize=auto;html=1;" parent="1" source="bw8M7RW2mz0McZh7SWPE-4" target="bw8M7RW2mz0McZh7SWPE-7" edge="1">
          <mxGeometry relative="1" as="geometry" />
        </mxCell>
        <mxCell id="bw8M7RW2mz0McZh7SWPE-33" value="" style="edgeStyle=orthogonalEdgeStyle;shape=link;rounded=0;orthogonalLoop=1;jettySize=auto;html=1;" parent="1" source="bw8M7RW2mz0McZh7SWPE-4" target="bw8M7RW2mz0McZh7SWPE-24" edge="1">
          <mxGeometry relative="1" as="geometry" />
        </mxCell>
        <mxCell id="bw8M7RW2mz0McZh7SWPE-4" value="Crypt. Hoplite Statue. broken down wall." style="rounded=0;whiteSpace=wrap;html=1;" parent="1" vertex="1">
          <mxGeometry x="510" y="280" width="120" height="60" as="geometry" />
        </mxCell>
        <mxCell id="bw8M7RW2mz0McZh7SWPE-19" value="" style="edgeStyle=orthogonalEdgeStyle;shape=link;rounded=0;orthogonalLoop=1;jettySize=auto;html=1;" parent="1" source="bw8M7RW2mz0McZh7SWPE-5" target="bw8M7RW2mz0McZh7SWPE-9" edge="1">
          <mxGeometry relative="1" as="geometry" />
        </mxCell>
        <mxCell id="bw8M7RW2mz0McZh7SWPE-23" value="" style="edgeStyle=orthogonalEdgeStyle;shape=link;rounded=0;orthogonalLoop=1;jettySize=auto;html=1;" parent="1" source="bw8M7RW2mz0McZh7SWPE-5" target="bw8M7RW2mz0McZh7SWPE-6" edge="1">
          <mxGeometry relative="1" as="geometry" />
        </mxCell>
        <mxCell id="bw8M7RW2mz0McZh7SWPE-5" value="Wine Cellar" style="rounded=0;whiteSpace=wrap;html=1;" parent="1" vertex="1">
          <mxGeometry x="365" y="370" width="120" height="60" as="geometry" />
        </mxCell>
        <mxCell id="bw8M7RW2mz0McZh7SWPE-44" value="" style="edgeStyle=orthogonalEdgeStyle;shape=link;rounded=0;orthogonalLoop=1;jettySize=auto;html=1;" parent="1" source="bw8M7RW2mz0McZh7SWPE-6" target="bw8M7RW2mz0McZh7SWPE-28" edge="1">
          <mxGeometry relative="1" as="geometry" />
        </mxCell>
        <mxCell id="bw8M7RW2mz0McZh7SWPE-6" value="&amp;nbsp;Black stain on the ground. Upside down cross." style="rounded=0;whiteSpace=wrap;html=1;" parent="1" vertex="1">
          <mxGeometry x="220" y="370" width="120" height="60" as="geometry" />
        </mxCell>
        <mxCell id="bw8M7RW2mz0McZh7SWPE-18" value="" style="edgeStyle=orthogonalEdgeStyle;shape=link;rounded=0;orthogonalLoop=1;jettySize=auto;html=1;" parent="1" source="bw8M7RW2mz0McZh7SWPE-7" target="bw8M7RW2mz0McZh7SWPE-5" edge="1">
          <mxGeometry relative="1" as="geometry" />
        </mxCell>
        <mxCell id="bw8M7RW2mz0McZh7SWPE-22" value="" style="edgeStyle=orthogonalEdgeStyle;shape=link;rounded=0;orthogonalLoop=1;jettySize=auto;html=1;" parent="1" source="bw8M7RW2mz0McZh7SWPE-7" target="bw8M7RW2mz0McZh7SWPE-10" edge="1">
          <mxGeometry relative="1" as="geometry" />
        </mxCell>
        <mxCell id="bw8M7RW2mz0McZh7SWPE-32" value="" style="edgeStyle=orthogonalEdgeStyle;shape=link;rounded=0;orthogonalLoop=1;jettySize=auto;html=1;" parent="1" source="bw8M7RW2mz0McZh7SWPE-7" target="bw8M7RW2mz0McZh7SWPE-25" edge="1">
          <mxGeometry relative="1" as="geometry" />
        </mxCell>
        <mxCell id="bw8M7RW2mz0McZh7SWPE-7" value="Crypt.&amp;nbsp;Small hole in the wall. 6 Bishops" style="rounded=0;whiteSpace=wrap;html=1;" parent="1" vertex="1">
          <mxGeometry x="510" y="370" width="120" height="60" as="geometry" />
        </mxCell>
        <mxCell id="aV3cHw3OfuO1fjueW_Oi-10" value="" style="edgeStyle=orthogonalEdgeStyle;rounded=0;orthogonalLoop=1;jettySize=auto;html=1;" edge="1" parent="1" source="bw8M7RW2mz0McZh7SWPE-8" target="bw8M7RW2mz0McZh7SWPE-29">
          <mxGeometry relative="1" as="geometry" />
        </mxCell>
        <mxCell id="bw8M7RW2mz0McZh7SWPE-8" value="Portcullis" style="rounded=0;whiteSpace=wrap;html=1;" parent="1" vertex="1">
          <mxGeometry x="365" y="540" width="120" height="60" as="geometry" />
        </mxCell>
        <mxCell id="bw8M7RW2mz0McZh7SWPE-21" value="" style="edgeStyle=orthogonalEdgeStyle;shape=link;rounded=0;orthogonalLoop=1;jettySize=auto;html=1;" parent="1" source="bw8M7RW2mz0McZh7SWPE-9" target="bw8M7RW2mz0McZh7SWPE-8" edge="1">
          <mxGeometry relative="1" as="geometry" />
        </mxCell>
        <mxCell id="bw8M7RW2mz0McZh7SWPE-9" value="&lt;div&gt;Crypt.&lt;/div&gt;&lt;div&gt;Corpse on a cross&lt;/div&gt;&lt;div&gt;Collapsed Hallway&lt;br&gt;&lt;/div&gt;" style="rounded=0;whiteSpace=wrap;html=1;" parent="1" vertex="1">
          <mxGeometry x="365" y="460" width="120" height="60" as="geometry" />
        </mxCell>
        <mxCell id="bw8M7RW2mz0McZh7SWPE-20" value="" style="edgeStyle=orthogonalEdgeStyle;shape=link;rounded=0;orthogonalLoop=1;jettySize=auto;html=1;" parent="1" source="bw8M7RW2mz0McZh7SWPE-10" target="bw8M7RW2mz0McZh7SWPE-9" edge="1">
          <mxGeometry relative="1" as="geometry" />
        </mxCell>
        <mxCell id="bw8M7RW2mz0McZh7SWPE-10" value="Crypt Two Statues (Kneeling and Bearskin)" style="rounded=0;whiteSpace=wrap;html=1;" parent="1" vertex="1">
          <mxGeometry x="510" y="460" width="120" height="60" as="geometry" />
        </mxCell>
        <mxCell id="bw8M7RW2mz0McZh7SWPE-40" value="" style="edgeStyle=orthogonalEdgeStyle;shape=link;rounded=0;orthogonalLoop=1;jettySize=auto;html=1;" parent="1" source="bw8M7RW2mz0McZh7SWPE-24" target="bw8M7RW2mz0McZh7SWPE-39" edge="1">
          <mxGeometry relative="1" as="geometry" />
        </mxCell>
        <mxCell id="bw8M7RW2mz0McZh7SWPE-24" value="Small room. Fungus" style="rounded=0;whiteSpace=wrap;html=1;" parent="1" vertex="1">
          <mxGeometry x="650" y="280" width="120" height="60" as="geometry" />
        </mxCell>
        <mxCell id="bw8M7RW2mz0McZh7SWPE-38" value="" style="edgeStyle=orthogonalEdgeStyle;shape=link;rounded=0;orthogonalLoop=1;jettySize=auto;html=1;" parent="1" source="bw8M7RW2mz0McZh7SWPE-25" target="bw8M7RW2mz0McZh7SWPE-26" edge="1">
          <mxGeometry relative="1" as="geometry" />
        </mxCell>
        <mxCell id="bw8M7RW2mz0McZh7SWPE-25" value="Unnatural Crawl-way dug by a monster. " style="rounded=0;whiteSpace=wrap;html=1;" parent="1" vertex="1">
          <mxGeometry x="650" y="370" width="120" height="60" as="geometry" />
        </mxCell>
        <mxCell id="bw8M7RW2mz0McZh7SWPE-37" value="" style="edgeStyle=orthogonalEdgeStyle;rounded=0;orthogonalLoop=1;jettySize=auto;html=1;shape=flexArrow;" parent="1" source="bw8M7RW2mz0McZh7SWPE-26" target="bw8M7RW2mz0McZh7SWPE-36" edge="1">
          <mxGeometry relative="1" as="geometry" />
        </mxCell>
        <mxCell id="bw8M7RW2mz0McZh7SWPE-42" value="" style="edgeStyle=orthogonalEdgeStyle;shape=link;rounded=0;orthogonalLoop=1;jettySize=auto;html=1;" parent="1" source="bw8M7RW2mz0McZh7SWPE-26" target="bw8M7RW2mz0McZh7SWPE-41" edge="1">
          <mxGeometry relative="1" as="geometry" />
        </mxCell>
        <mxCell id="bw8M7RW2mz0McZh7SWPE-26" value="Huge Natural Cave&lt;br&gt;Statue made of bones" style="rounded=0;whiteSpace=wrap;html=1;" parent="1" vertex="1">
          <mxGeometry x="650" y="460" width="120" height="60" as="geometry" />
        </mxCell>
        <mxCell id="bw8M7RW2mz0McZh7SWPE-27" value="&lt;div&gt;Secret Treasury&lt;/div&gt;&lt;div&gt;Collapsed Hallways&lt;/div&gt;" style="rounded=0;whiteSpace=wrap;html=1;" parent="1" vertex="1">
          <mxGeometry x="220" y="190" width="120" height="60" as="geometry" />
        </mxCell>
        <mxCell id="bw8M7RW2mz0McZh7SWPE-28" value="Meditation Room.&lt;br&gt;Collapsed Hallway" style="rounded=0;whiteSpace=wrap;html=1;" parent="1" vertex="1">
          <mxGeometry x="220" y="460" width="120" height="60" as="geometry" />
        </mxCell>
        <mxCell id="bw8M7RW2mz0McZh7SWPE-47" value="" style="edgeStyle=orthogonalEdgeStyle;shape=link;rounded=0;orthogonalLoop=1;jettySize=auto;html=1;" parent="1" source="bw8M7RW2mz0McZh7SWPE-29" target="bw8M7RW2mz0McZh7SWPE-46" edge="1">
          <mxGeometry relative="1" as="geometry" />
        </mxCell>
        <mxCell id="bw8M7RW2mz0McZh7SWPE-29" value="Maintenance Room&amp;nbsp;&lt;br&gt;With Elevator&lt;br&gt;(Thin Wall)" style="rounded=0;whiteSpace=wrap;html=1;" parent="1" vertex="1">
          <mxGeometry x="365" y="620" width="120" height="60" as="geometry" />
        </mxCell>
        <mxCell id="bw8M7RW2mz0McZh7SWPE-35" value="" style="edgeStyle=orthogonalEdgeStyle;shape=link;rounded=0;orthogonalLoop=1;jettySize=auto;html=1;" parent="1" source="bw8M7RW2mz0McZh7SWPE-30" target="bw8M7RW2mz0McZh7SWPE-31" edge="1">
          <mxGeometry relative="1" as="geometry" />
        </mxCell>
        <mxCell id="bw8M7RW2mz0McZh7SWPE-49" value="" style="edgeStyle=orthogonalEdgeStyle;shape=link;rounded=0;orthogonalLoop=1;jettySize=auto;html=1;" parent="1" source="bw8M7RW2mz0McZh7SWPE-30" target="bw8M7RW2mz0McZh7SWPE-48" edge="1">
          <mxGeometry relative="1" as="geometry" />
        </mxCell>
        <mxCell id="bw8M7RW2mz0McZh7SWPE-30" value="Ornate Decorated Circular Room. 3 Statues. Ref: Gen 3:24" style="rounded=0;whiteSpace=wrap;html=1;" parent="1" vertex="1">
          <mxGeometry x="510" y="190" width="120" height="60" as="geometry" />
        </mxCell>
        <mxCell id="bw8M7RW2mz0McZh7SWPE-34" value="" style="edgeStyle=orthogonalEdgeStyle;shape=link;rounded=0;orthogonalLoop=1;jettySize=auto;html=1;" parent="1" source="bw8M7RW2mz0McZh7SWPE-31" target="bw8M7RW2mz0McZh7SWPE-24" edge="1">
          <mxGeometry relative="1" as="geometry" />
        </mxCell>
        <mxCell id="bw8M7RW2mz0McZh7SWPE-31" value="Covered in Ash.&amp;nbsp;&lt;br&gt;Ornate Door (Locked by Button Puzzle)" style="rounded=0;whiteSpace=wrap;html=1;" parent="1" vertex="1">
          <mxGeometry x="650" y="190" width="120" height="60" as="geometry" />
        </mxCell>
        <mxCell id="bw8M7RW2mz0McZh7SWPE-36" value="&lt;div&gt;Steep incline down. Cold air, water sound&lt;br&gt;&lt;/div&gt;&lt;div&gt;[Old Sewer]&lt;br&gt;&lt;/div&gt;" style="rounded=0;whiteSpace=wrap;html=1;" parent="1" vertex="1">
          <mxGeometry x="650" y="700" width="120" height="60" as="geometry" />
        </mxCell>
        <mxCell id="bw8M7RW2mz0McZh7SWPE-39" value="&lt;div&gt;Metal door&lt;/div&gt;&lt;div&gt;[Fungal Grove]&lt;/div&gt;" style="rounded=0;whiteSpace=wrap;html=1;" parent="1" vertex="1">
          <mxGeometry x="790" y="280" width="120" height="60" as="geometry" />
        </mxCell>
        <mxCell id="bw8M7RW2mz0McZh7SWPE-41" value="&lt;div&gt;Crawlway&lt;/div&gt;[Fungal Grove]" style="rounded=0;whiteSpace=wrap;html=1;" parent="1" vertex="1">
          <mxGeometry x="790" y="460" width="120" height="60" as="geometry" />
        </mxCell>
        <mxCell id="bw8M7RW2mz0McZh7SWPE-46" value="Thin Wall Opening&lt;br&gt;[Old Sewer]" style="rounded=0;whiteSpace=wrap;html=1;" parent="1" vertex="1">
          <mxGeometry x="365" y="700" width="120" height="60" as="geometry" />
        </mxCell>
        <mxCell id="bw8M7RW2mz0McZh7SWPE-48" value="Portcullis&lt;br&gt;Spiral Staircase down. Tomb of St. Immaculate" style="rounded=0;whiteSpace=wrap;html=1;" parent="1" vertex="1">
          <mxGeometry x="510" y="100" width="120" height="60" as="geometry" />
        </mxCell>
        <mxCell id="aV3cHw3OfuO1fjueW_Oi-4" value="" style="sketch=0;pointerEvents=1;shadow=0;dashed=0;html=1;strokeColor=none;fillColor=#505050;labelPosition=center;verticalLabelPosition=bottom;verticalAlign=top;outlineConnect=0;align=center;shape=mxgraph.office.security.lock_with_key_security;" vertex="1" parent="1">
          <mxGeometry x="340" y="310" width="14.59" height="18" as="geometry" />
        </mxCell>
        <mxCell id="aV3cHw3OfuO1fjueW_Oi-5" value="" style="sketch=0;pointerEvents=1;shadow=0;dashed=0;html=1;strokeColor=none;fillColor=#505050;labelPosition=center;verticalLabelPosition=bottom;verticalAlign=top;outlineConnect=0;align=center;shape=mxgraph.office.security.key_permissions;" vertex="1" parent="1">
          <mxGeometry x="269.15" y="340" width="10.85" height="23" as="geometry" />
        </mxCell>
        <mxCell id="aV3cHw3OfuO1fjueW_Oi-6" value="= Jesus" style="text;html=1;strokeColor=none;fillColor=none;align=center;verticalAlign=middle;whiteSpace=wrap;rounded=0;" vertex="1" parent="1">
          <mxGeometry x="280" y="340" width="60" height="30" as="geometry" />
        </mxCell>
        <mxCell id="aV3cHw3OfuO1fjueW_Oi-11" value="&lt;b&gt;S&lt;/b&gt;" style="text;html=1;strokeColor=none;fillColor=none;align=center;verticalAlign=middle;whiteSpace=wrap;rounded=0;" vertex="1" parent="1">
          <mxGeometry x="260" y="250" width="60" height="30" as="geometry" />
        </mxCell>
        <mxCell id="aV3cHw3OfuO1fjueW_Oi-12" value="Treasury" style="rounded=0;whiteSpace=wrap;html=1;" vertex="1" parent="1">
          <mxGeometry x="220" y="100" width="120" height="60" as="geometry" />
        </mxCell>
        <mxCell id="aV3cHw3OfuO1fjueW_Oi-14" value="Treasury" style="whiteSpace=wrap;html=1;rounded=0;" vertex="1" parent="1">
          <mxGeometry x="70" y="190" width="120" height="60" as="geometry" />
        </mxCell>
        <mxCell id="aV3cHw3OfuO1fjueW_Oi-18" value="" style="endArrow=none;dashed=1;html=1;dashPattern=1 3;strokeWidth=2;rounded=0;shape=link;" edge="1" parent="1" source="bw8M7RW2mz0McZh7SWPE-27" target="aV3cHw3OfuO1fjueW_Oi-12">
          <mxGeometry width="50" height="50" relative="1" as="geometry">
            <mxPoint x="230" y="230" as="sourcePoint" />
            <mxPoint x="240" y="170" as="targetPoint" />
          </mxGeometry>
        </mxCell>
        <mxCell id="aV3cHw3OfuO1fjueW_Oi-19" value="" style="endArrow=none;dashed=1;html=1;dashPattern=1 3;strokeWidth=2;rounded=0;shape=link;" edge="1" parent="1" source="aV3cHw3OfuO1fjueW_Oi-14" target="bw8M7RW2mz0McZh7SWPE-27">
          <mxGeometry width="50" height="50" relative="1" as="geometry">
            <mxPoint x="230" y="230" as="sourcePoint" />
            <mxPoint x="280" y="180" as="targetPoint" />
          </mxGeometry>
        </mxCell>
        <mxCell id="aV3cHw3OfuO1fjueW_Oi-20" value="" style="endArrow=none;dashed=1;html=1;dashPattern=1 3;strokeWidth=2;rounded=0;shape=link;" edge="1" parent="1" source="bw8M7RW2mz0McZh7SWPE-28" target="bw8M7RW2mz0McZh7SWPE-9">
          <mxGeometry width="50" height="50" relative="1" as="geometry">
            <mxPoint x="320" y="470" as="sourcePoint" />
            <mxPoint x="370" y="420" as="targetPoint" />
          </mxGeometry>
        </mxCell>
      </root>
    </mxGraphModel>
  </diagram>
</mxfile>
